<?xml version="1.0" standalone="no"?>
<!DOCTYPE svg PUBLIC "-//W3C//DTD SVG 20010904//EN"
 "http://www.w3.org/TR/2001/REC-SVG-20010904/DTD/svg10.dtd">
<svg version="1.0" xmlns="http://www.w3.org/2000/svg"
 width="120.000000pt" height="46.000000pt" viewBox="0 0 120.000000 46.000000"
 preserveAspectRatio="xMidYMid meet">

<g transform="translate(0.000000,46.000000) scale(0.100000,-0.100000)"
fill="#000000" stroke="none">
<path d="M680 290 c-23 -23 -27 -82 -7 -98 10 -9 12 -4 9 22 -5 40 12 76 35
76 15 0 14 -2 -1 -19 -15 -16 -15 -19 -1 -24 22 -9 20 -64 -2 -70 -10 -3 -3
-5 15 -6 65 -2 95 67 47 114 -29 30 -68 32 -95 5z m110 -50 c0 -4 -10 -14 -23
-23 -22 -14 -23 -14 -23 18 0 31 2 32 23 22 13 -5 23 -13 23 -17z"/>
<path d="M160 241 c0 -22 5 -43 10 -46 6 -3 10 3 10 14 0 14 8 21 28 23 19 2
27 9 27 23 0 16 -8 21 -37 23 l-38 3 0 -40z m53 14 c1 -5 -6 -11 -15 -13 -11
-2 -18 3 -18 13 0 17 30 18 33 0z"/>
<path d="M268 255 c-10 -22 -9 -29 10 -47 18 -19 25 -20 47 -10 44 20 28 82
-22 82 -15 0 -27 -9 -35 -25z m60 -13 c2 -14 -3 -25 -13 -29 -21 -7 -34 12
-27 39 6 26 36 19 40 -10z"/>
<path d="M380 234 c0 -27 4 -43 10 -39 6 3 10 24 10 46 0 21 -4 39 -10 39 -5
0 -10 -21 -10 -46z"/>
<path d="M430 235 c0 -25 5 -45 10 -45 6 0 10 15 10 33 l0 32 21 -32 c28 -45
39 -41 39 12 0 25 -4 45 -10 45 -5 0 -10 -12 -10 -27 l-1 -28 -20 28 c-29 38
-39 34 -39 -18z"/>
<path d="M543 273 c12 -3 17 -14 17 -38 0 -19 5 -37 10 -40 6 -4 10 10 10 34
0 33 4 40 23 44 12 2 0 4 -28 4 -27 1 -42 -1 -32 -4z"/>
<path d="M850 241 c0 -22 5 -43 10 -46 6 -3 10 3 10 14 0 28 36 28 43 0 9 -33
27 -12 27 32 0 28 -4 39 -15 39 -8 0 -15 -8 -15 -18 0 -24 -31 -24 -38 0 -8
32 -22 19 -22 -21z"/>
<path d="M960 241 c0 -22 5 -43 10 -46 6 -3 10 3 10 14 0 28 24 27 43 -1 13
-19 16 -20 16 -6 1 9 -4 20 -10 24 -8 5 -7 9 1 14 24 15 2 40 -35 40 -34 0
-35 -1 -35 -39z m51 14 c-1 -15 -24 -12 -29 3 -3 9 2 13 12 10 10 -1 17 -7 17
-13z"/>
</g>
</svg>
